<svg t="1610414930974"  viewBox="0 0 1024 1024" p-id="987" xmlns:xlink="http://www.w3.org/1999/xlink" width="32" height="32"><defs><style type="text/css"></style></defs><path d="M192 394.7V192h202.7c17.7 0 32-14.3 32-32s-14.3-32-32-32h-224c-23.6 0-42.7 19.1-42.7 42.7v224c0 17.7 14.3 32 32 32s32-14.4 32-32zM832 629.3V832H629.3c-17.7 0-32 14.3-32 32s14.3 32 32 32h224c23.6 0 42.7-19.1 42.7-42.7v-224c0-17.7-14.3-32-32-32s-32 14.4-32 32z" p-id="988"></path><path d="M394.7 832H237.3L384 685.3c12.5-12.5 12.5-32.8 0-45.3s-32.8-12.5-45.3 0L192 786.8V629.3c0-17.7-14.3-32-32-32s-32 14.3-32 32v224c0 23.6 19.1 42.7 42.7 42.7h224c17.7 0 32-14.3 32-32s-14.4-32-32-32zM853.3 128h-224c-17.7 0-32 14.3-32 32s14.3 32 32 32h157.4L640 338.8c-12.5 12.5-12.5 32.8 0 45.3s32.8 12.5 45.3 0L832 237.3v157.4c0 17.7 14.3 32 32 32s32-14.3 32-32v-224c0-23.6-19.1-42.7-42.7-42.7z" p-id="989"></path></svg>