
<svg t="1610429042644"
     viewBox="0 0 1024 1024" version="1.1" xmlns="http://www.w3.org/2000/svg" p-id="11114"
    xmlns:xlink="http://www.w3.org/1999/xlink" width="128" height="128">

    <path
        d="M637.866667 921.6c-2.133333 0-6.4 0-8.533334-2.133333-38.4-10.666667-72.533333-29.866667-102.4-57.6-6.4-6.4-10.666667-17.066667-10.666666-25.6l4.266666-44.8-42.666666-17.066667c-8.533333-4.266667-14.933333-10.666667-19.2-21.333333-8.533333-34.133333-10.666667-70.4-4.266667-106.666667 0-2.133333 2.133333-6.4 2.133333-8.533333v-2.133334c2.133333-8.533333 8.533333-17.066667 17.066667-21.333333l40.533333-19.2-6.4-44.8c-2.133333-10.666667 2.133333-19.2 8.533334-25.6 27.733333-27.733333 61.866667-46.933333 100.266666-59.733333 8.533333-2.133333 19.2-2.133333 27.733334 4.266666l36.266666 25.6L725.333333 469.333333c8.533333-6.4 17.066667-8.533333 27.733334-4.266666 38.4 10.666667 72.533333 29.866667 102.4 57.6 6.4 6.4 10.666667 17.066667 10.666666 25.6l-4.266666 44.8 42.666666 17.066666c8.533333 4.266667 14.933333 10.666667 19.2 21.333334 8.533333 34.133333 10.666667 70.4 4.266667 106.666666 0 2.133333-2.133333 6.4-2.133333 8.533334v2.133333c-2.133333 8.533333-8.533333 17.066667-17.066667 21.333333l-46.933333 19.2 6.4 44.8c2.133333 10.666667-2.133333 19.2-8.533334 25.6-27.733333 27.733333-61.866667 46.933333-100.266666 59.733334-8.533333 2.133333-19.2 2.133333-27.733334-4.266667l-36.266666-25.6-36.266667 27.733333c-8.533333 2.133333-14.933333 4.266667-21.333333 4.266667z m-55.466667-93.866667c14.933333 10.666667 29.866667 21.333333 49.066667 27.733334l42.666666-32c10.666667-8.533333 25.6-8.533333 38.4 0l42.666667 29.866666c17.066667-6.4 34.133333-17.066667 46.933333-27.733333l-6.4-51.2c-2.133333-12.8 6.4-27.733333 19.2-32l46.933334-21.333333c2.133333-19.2 2.133333-36.266667 0-55.466667l-49.066667-21.333333c-12.8-6.4-21.333333-19.2-19.2-32l4.266667-51.2c-14.933333-10.666667-29.866667-21.333333-49.066667-27.733334l-42.666667 32c-10.666667 8.533333-25.6 8.533333-38.4 0l-42.666666-29.866666c-17.066667 6.4-34.133333 17.066667-46.933334 27.733333l6.4 51.2c2.133333 12.8-6.4 27.733333-19.2 32l-46.933333 21.333333c-2.133333 19.2-2.133333 36.266667 0 55.466667l49.066667 21.333333c12.8 6.4 21.333333 19.2 19.2 32l-4.266667 51.2z m309.333333-96z"
        p-id="11115" ></path>
    <path
        d="M693.333333 778.666667c-46.933333 0-85.333333-38.4-85.333333-85.333334s38.4-85.333333 85.333333-85.333333 85.333333 38.4 85.333334 85.333333-38.4 85.333333-85.333334 85.333334z m0-128c-23.466667 0-42.666667 19.2-42.666666 42.666666s19.2 42.666667 42.666666 42.666667 42.666667-19.2 42.666667-42.666667-19.2-42.666667-42.666667-42.666666zM458.666667 917.333333h-256c-17.066667 0-32-14.933333-32-32S185.6 853.333333 202.666667 853.333333h256c17.066667 0 32 14.933333 32 32s-14.933333 32-32 32zM362.666667 768H202.666667C149.333333 768 106.666667 725.333333 106.666667 672v-469.333333C106.666667 149.333333 149.333333 106.666667 202.666667 106.666667h618.666666C874.666667 106.666667 917.333333 149.333333 917.333333 202.666667v170.666666c0 17.066667-14.933333 32-32 32s-32-14.933333-32-32v-170.666666c0-17.066667-14.933333-32-32-32h-618.666666C185.6 170.666667 170.666667 185.6 170.666667 202.666667v469.333333c0 17.066667 14.933333 32 32 32H362.666667c17.066667 0 32 14.933333 32 32S379.733333 768 362.666667 768z"
        p-id="11116" ></path>
</svg>